<svg width="388" height="143" viewBox="0 0 388 143" fill="none" xmlns="http://www.w3.org/2000/svg">
<rect x="104" width="179" height="60" fill="#1B0101"/>
<path d="M194 143L25.9911 58.25L362.009 58.25L194 143Z" fill="#1B0101"/>
<path d="M164.831 42.22C163.584 42.22 162.514 42.0073 161.619 41.582C160.739 41.1567 159.94 40.5187 159.221 39.668L161.201 37.688C161.656 38.2893 162.184 38.7587 162.785 39.096C163.386 39.4187 164.12 39.58 164.985 39.58C165.762 39.58 166.378 39.426 166.833 39.118C167.302 38.81 167.537 38.3847 167.537 37.842C167.537 37.3727 167.405 36.9913 167.141 36.698C166.877 36.4047 166.525 36.1553 166.085 35.95C165.66 35.7447 165.183 35.5613 164.655 35.4C164.142 35.224 163.621 35.026 163.093 34.806C162.58 34.586 162.103 34.3147 161.663 33.992C161.238 33.6547 160.893 33.2293 160.629 32.716C160.365 32.188 160.233 31.528 160.233 30.736C160.233 29.7973 160.46 28.998 160.915 28.338C161.37 27.678 161.993 27.172 162.785 26.82C163.577 26.468 164.472 26.292 165.469 26.292C166.525 26.292 167.478 26.49 168.329 26.886C169.18 27.282 169.876 27.7953 170.419 28.426L168.439 30.406C167.984 29.9073 167.515 29.5407 167.031 29.306C166.562 29.0713 166.026 28.954 165.425 28.954C164.736 28.954 164.193 29.086 163.797 29.35C163.401 29.614 163.203 29.9953 163.203 30.494C163.203 30.9193 163.335 31.264 163.599 31.528C163.863 31.792 164.208 32.0193 164.633 32.21C165.073 32.4007 165.55 32.584 166.063 32.76C166.591 32.936 167.112 33.134 167.625 33.354C168.153 33.574 168.63 33.86 169.055 34.212C169.495 34.564 169.847 35.0187 170.111 35.576C170.375 36.1187 170.507 36.7933 170.507 37.6C170.507 39.0373 170.001 40.1667 168.989 40.988C167.977 41.8093 166.591 42.22 164.831 42.22ZM172.153 42V31.374H175.057V42H172.153ZM173.605 29.658C173.135 29.658 172.747 29.504 172.439 29.196C172.131 28.8733 171.977 28.4773 171.977 28.008C171.977 27.5533 172.131 27.1647 172.439 26.842C172.747 26.5193 173.135 26.358 173.605 26.358C174.089 26.358 174.477 26.5193 174.771 26.842C175.079 27.1647 175.233 27.5533 175.233 28.008C175.233 28.4773 175.079 28.8733 174.771 29.196C174.477 29.504 174.089 29.658 173.605 29.658ZM181.646 46.708C180.516 46.708 179.519 46.5027 178.654 46.092C177.788 45.696 177.099 45.1313 176.586 44.398L178.412 42.572C178.822 43.056 179.277 43.4227 179.776 43.672C180.289 43.936 180.905 44.068 181.624 44.068C182.518 44.068 183.222 43.8407 183.736 43.386C184.264 42.9313 184.528 42.3007 184.528 41.494V38.832L185.012 36.5L184.55 34.168V31.374H187.41V41.45C187.41 42.506 187.16 43.4227 186.662 44.2C186.178 44.992 185.503 45.608 184.638 46.048C183.772 46.488 182.775 46.708 181.646 46.708ZM181.514 41.714C180.56 41.714 179.702 41.4867 178.94 41.032C178.177 40.5627 177.576 39.9247 177.136 39.118C176.71 38.3113 176.498 37.4093 176.498 36.412C176.498 35.4147 176.71 34.52 177.136 33.728C177.576 32.936 178.177 32.3127 178.94 31.858C179.702 31.3887 180.56 31.154 181.514 31.154C182.306 31.154 183.002 31.308 183.604 31.616C184.22 31.924 184.704 32.3493 185.056 32.892C185.408 33.42 185.598 34.0433 185.628 34.762V38.106C185.598 38.81 185.4 39.4407 185.034 39.998C184.682 40.5407 184.198 40.966 183.582 41.274C182.98 41.5673 182.291 41.714 181.514 41.714ZM182.086 39.096C182.614 39.096 183.068 38.986 183.45 38.766C183.846 38.5313 184.154 38.216 184.374 37.82C184.594 37.4093 184.704 36.9473 184.704 36.434C184.704 35.906 184.594 35.444 184.374 35.048C184.154 34.652 183.846 34.344 183.45 34.124C183.068 33.8893 182.614 33.772 182.086 33.772C181.558 33.772 181.096 33.8893 180.7 34.124C180.304 34.344 179.996 34.6593 179.776 35.07C179.556 35.466 179.446 35.9207 179.446 36.434C179.446 36.9327 179.556 37.3873 179.776 37.798C179.996 38.194 180.304 38.5093 180.7 38.744C181.096 38.9787 181.558 39.096 182.086 39.096ZM196.684 42V35.906C196.684 35.2753 196.486 34.762 196.09 34.366C195.694 33.97 195.18 33.772 194.55 33.772C194.139 33.772 193.772 33.86 193.45 34.036C193.127 34.212 192.87 34.4613 192.68 34.784C192.504 35.1067 192.416 35.4807 192.416 35.906L191.294 35.334C191.294 34.498 191.47 33.772 191.822 33.156C192.188 32.5253 192.687 32.034 193.318 31.682C193.963 31.33 194.689 31.154 195.496 31.154C196.273 31.154 196.97 31.352 197.586 31.748C198.202 32.1293 198.686 32.6353 199.038 33.266C199.39 33.882 199.566 34.5493 199.566 35.268V42H196.684ZM189.534 42V31.374H192.416V42H189.534ZM209.9 42.22C208.962 42.22 208.126 42.022 207.392 41.626C206.674 41.23 206.109 40.68 205.698 39.976C205.288 39.272 205.082 38.458 205.082 37.534V31.374H207.986V37.468C207.986 37.908 208.06 38.2893 208.206 38.612C208.353 38.92 208.573 39.1547 208.866 39.316C209.16 39.4773 209.504 39.558 209.9 39.558C210.502 39.558 210.971 39.3747 211.308 39.008C211.646 38.6413 211.814 38.128 211.814 37.468V31.374H214.696V37.534C214.696 38.4727 214.491 39.294 214.08 39.998C213.684 40.702 213.12 41.252 212.386 41.648C211.668 42.0293 210.839 42.22 209.9 42.22ZM222.479 42.22C221.717 42.22 221.027 42.066 220.411 41.758C219.795 41.4353 219.304 41.0027 218.937 40.46C218.571 39.9173 218.373 39.294 218.343 38.59V34.828C218.373 34.124 218.571 33.5007 218.937 32.958C219.319 32.4007 219.81 31.9607 220.411 31.638C221.027 31.3153 221.717 31.154 222.479 31.154C223.462 31.154 224.342 31.396 225.119 31.88C225.897 32.364 226.505 33.024 226.945 33.86C227.4 34.696 227.627 35.642 227.627 36.698C227.627 37.7393 227.4 38.678 226.945 39.514C226.505 40.35 225.897 41.01 225.119 41.494C224.342 41.978 223.462 42.22 222.479 42.22ZM221.973 39.558C222.501 39.558 222.971 39.4407 223.381 39.206C223.792 38.9567 224.107 38.6193 224.327 38.194C224.562 37.754 224.679 37.248 224.679 36.676C224.679 36.1187 224.562 35.6273 224.327 35.202C224.107 34.762 223.792 34.4247 223.381 34.19C222.971 33.9407 222.501 33.816 221.973 33.816C221.46 33.816 220.998 33.9407 220.587 34.19C220.177 34.4247 219.854 34.762 219.619 35.202C219.399 35.6273 219.289 36.1187 219.289 36.676C219.289 37.248 219.399 37.754 219.619 38.194C219.854 38.6193 220.169 38.9567 220.565 39.206C220.976 39.4407 221.445 39.558 221.973 39.558ZM216.583 46.444V31.374H219.465V34.168L218.981 36.742L219.443 39.316V46.444H216.583ZM145.787 68V52.534H148.779V68H145.787ZM147.987 61.664V59.002H155.775V61.664H147.987ZM147.987 55.174V52.534H156.149V55.174H147.987ZM165.143 68.242C164.013 68.242 162.957 68.0367 161.975 67.626C161.007 67.2153 160.156 66.6507 159.423 65.932C158.704 65.1987 158.139 64.348 157.729 63.38C157.318 62.3973 157.113 61.3487 157.113 60.234C157.113 59.1193 157.311 58.0853 157.707 57.132C158.117 56.164 158.682 55.3207 159.401 54.602C160.134 53.8687 160.985 53.304 161.953 52.908C162.921 52.4973 163.969 52.292 165.099 52.292C166.243 52.292 167.299 52.4973 168.267 52.908C169.235 53.304 170.078 53.8687 170.797 54.602C171.53 55.3207 172.102 56.164 172.513 57.132C172.923 58.1 173.129 59.1413 173.129 60.256C173.129 61.3707 172.923 62.412 172.513 63.38C172.102 64.348 171.53 65.1987 170.797 65.932C170.078 66.6507 169.235 67.2153 168.267 67.626C167.313 68.0367 166.272 68.242 165.143 68.242ZM165.099 65.448C166.096 65.448 166.961 65.228 167.695 64.788C168.428 64.348 169 63.7393 169.411 62.962C169.836 62.1847 170.049 61.2753 170.049 60.234C170.049 59.4713 169.931 58.7747 169.697 58.144C169.462 57.5133 169.125 56.9707 168.685 56.516C168.245 56.0467 167.724 55.6873 167.123 55.438C166.521 55.1887 165.847 55.064 165.099 55.064C164.131 55.064 163.273 55.284 162.525 55.724C161.791 56.1493 161.212 56.7507 160.787 57.528C160.376 58.3053 160.171 59.2073 160.171 60.234C160.171 61.0113 160.288 61.7227 160.523 62.368C160.772 63.0133 161.109 63.5633 161.535 64.018C161.975 64.4727 162.495 64.8247 163.097 65.074C163.713 65.3233 164.38 65.448 165.099 65.448ZM177.292 61.532V59.2H180.878C181.612 59.2 182.176 59.0167 182.572 58.65C182.983 58.2687 183.188 57.748 183.188 57.088C183.188 56.4867 182.983 55.988 182.572 55.592C182.176 55.1813 181.612 54.976 180.878 54.976H177.292V52.534H181.142C182.14 52.534 183.012 52.732 183.76 53.128C184.523 53.5093 185.11 54.0373 185.52 54.712C185.946 55.3867 186.158 56.164 186.158 57.044C186.158 57.9533 185.946 58.7453 185.52 59.42C185.11 60.08 184.523 60.6007 183.76 60.982C182.998 61.3487 182.11 61.532 181.098 61.532H177.292ZM175.092 68V52.534H178.084V68H175.092ZM183.54 68L178.436 61.312L181.186 60.454L187.17 68H183.54ZM192.646 68V52.534H195.638V68H192.646ZM194.846 61.664V59.002H202.634V61.664H194.846ZM194.846 55.174V52.534H203.008V55.174H194.846ZM207.156 61.532V59.2H210.742C211.476 59.2 212.04 59.0167 212.436 58.65C212.847 58.2687 213.052 57.748 213.052 57.088C213.052 56.4867 212.847 55.988 212.436 55.592C212.04 55.1813 211.476 54.976 210.742 54.976H207.156V52.534H211.006C212.004 52.534 212.876 52.732 213.624 53.128C214.387 53.5093 214.974 54.0373 215.384 54.712C215.81 55.3867 216.022 56.164 216.022 57.044C216.022 57.9533 215.81 58.7453 215.384 59.42C214.974 60.08 214.387 60.6007 213.624 60.982C212.862 61.3487 211.974 61.532 210.962 61.532H207.156ZM204.956 68V52.534H207.948V68H204.956ZM213.404 68L208.3 61.312L211.05 60.454L217.034 68H213.404ZM218.32 68V52.534H221.312V68H218.32ZM220.52 68V65.36H229.078V68H220.52ZM220.52 61.378V58.826H228.308V61.378H220.52ZM220.52 55.174V52.534H228.968V55.174H220.52ZM231.146 68V52.534H234.138V68H231.146ZM233.346 68V65.36H241.904V68H233.346ZM233.346 61.378V58.826H241.134V61.378H233.346ZM233.346 55.174V52.534H241.794V55.174H233.346ZM172.901 94V78.534H174.991L175.893 81.526V94H172.901ZM183.593 94L174.419 82.12L174.991 78.534L184.165 90.414L183.593 94ZM183.593 94L182.735 91.096V78.534H185.749V94H183.593ZM193.164 94.22C192.093 94.22 191.125 93.978 190.26 93.494C189.409 92.9953 188.727 92.328 188.214 91.492C187.715 90.6413 187.466 89.6953 187.466 88.654C187.466 87.6127 187.715 86.6813 188.214 85.86C188.712 85.024 189.394 84.364 190.26 83.88C191.125 83.3813 192.086 83.132 193.142 83.132C194.227 83.132 195.195 83.3813 196.046 83.88C196.911 84.364 197.593 85.024 198.092 85.86C198.59 86.6813 198.84 87.6127 198.84 88.654C198.84 89.6953 198.59 90.6413 198.092 91.492C197.593 92.328 196.911 92.9953 196.046 93.494C195.195 93.978 194.234 94.22 193.164 94.22ZM193.142 91.536C193.684 91.536 194.161 91.4187 194.572 91.184C194.997 90.9347 195.32 90.5973 195.54 90.172C195.774 89.732 195.892 89.2333 195.892 88.676C195.892 88.1187 195.774 87.6273 195.54 87.202C195.305 86.7767 194.982 86.4467 194.572 86.212C194.161 85.9627 193.684 85.838 193.142 85.838C192.614 85.838 192.144 85.9627 191.734 86.212C191.323 86.4467 191 86.7767 190.766 87.202C190.531 87.6273 190.414 88.1187 190.414 88.676C190.414 89.2333 190.531 89.732 190.766 90.172C191 90.5973 191.323 90.9347 191.734 91.184C192.144 91.4187 192.614 91.536 193.142 91.536ZM202.889 94L198.907 83.374H201.811L204.407 91.096L203.527 91.118L206.189 83.374H208.279L210.941 91.118L210.061 91.096L212.657 83.374H215.561L211.601 94H209.511L206.827 86.652H207.641L204.957 94H202.889Z" fill="white"/>
</svg>
