<svg width="1024" height="1024" viewBox="0 0 1024 1024" fill="none" xmlns="http://www.w3.org/2000/svg">
<path d="M512 64C264.6 64 64 264.6 64 512C64 759.4 264.6 960 512 960C759.4 960 960 759.4 960 512C960 264.6 759.4 64 512 64ZM512 884C306.6 884 140 717.4 140 512C140 306.6 306.6 140 512 140C717.4 140 884 306.6 884 512C884 717.4 717.4 884 512 884Z" fill="#F30505"/>
<path d="M464 688C464 700.73 469.057 712.939 478.059 721.941C487.061 730.943 499.27 736 512 736C524.73 736 536.939 730.943 545.941 721.941C554.943 712.939 560 700.73 560 688C560 675.27 554.943 663.061 545.941 654.059C536.939 645.057 524.73 640 512 640C499.27 640 487.061 645.057 478.059 654.059C469.057 663.061 464 675.27 464 688V688ZM488 576H536C540.4 576 544 572.4 544 568V296C544 291.6 540.4 288 536 288H488C483.6 288 480 291.6 480 296V568C480 572.4 483.6 576 488 576Z" fill="#F30505"/>
</svg>
