<svg width="48" height="48" viewBox="0 0 48 48" fill="none" xmlns="http://www.w3.org/2000/svg">
<g clip-path="url(#clip0_32_161)">
<path d="M45 36C45 36.7956 44.6839 37.5587 44.1213 38.1213C43.5587 38.6839 42.7957 39 42 39H6C5.20435 39 4.44129 38.6839 3.87868 38.1213C3.31607 37.5587 3 36.7956 3 36V18C3 17.2044 3.31607 16.4413 3.87868 15.8787C4.44129 15.3161 5.20435 15 6 15H9.516C11.9017 14.9987 14.1893 14.0502 15.876 12.363L18.366 9.879C18.927 9.31782 19.6875 9.00176 20.481 9H27.513C28.3086 9.00017 29.0715 9.31635 29.634 9.879L32.118 12.363C32.9539 13.1991 33.9463 13.8624 35.0386 14.3149C36.1309 14.7673 37.3017 15.0001 38.484 15H42C42.7957 15 43.5587 15.3161 44.1213 15.8787C44.6839 16.4413 45 17.2044 45 18V36ZM6 12C4.4087 12 2.88258 12.6321 1.75736 13.7574C0.632141 14.8826 0 16.4087 0 18L0 36C0 37.5913 0.632141 39.1174 1.75736 40.2426C2.88258 41.3679 4.4087 42 6 42H42C43.5913 42 45.1174 41.3679 46.2426 40.2426C47.3679 39.1174 48 37.5913 48 36V18C48 16.4087 47.3679 14.8826 46.2426 13.7574C45.1174 12.6321 43.5913 12 42 12H38.484C36.8928 11.9997 35.367 11.3673 34.242 10.242L31.758 7.758C30.633 6.6327 29.1072 6.00034 27.516 6H20.484C18.8928 6.00034 17.367 6.6327 16.242 7.758L13.758 10.242C12.633 11.3673 11.1072 11.9997 9.516 12H6Z" fill="#550202"/>
<path d="M24 33C22.0109 33 20.1032 32.2098 18.6967 30.8033C17.2902 29.3968 16.5 27.4891 16.5 25.5C16.5 23.5109 17.2902 21.6032 18.6967 20.1967C20.1032 18.7902 22.0109 18 24 18C25.9891 18 27.8968 18.7902 29.3033 20.1967C30.7098 21.6032 31.5 23.5109 31.5 25.5C31.5 27.4891 30.7098 29.3968 29.3033 30.8033C27.8968 32.2098 25.9891 33 24 33ZM24 36C26.7848 36 29.4555 34.8938 31.4246 32.9246C33.3938 30.9555 34.5 28.2848 34.5 25.5C34.5 22.7152 33.3938 20.0445 31.4246 18.0754C29.4555 16.1062 26.7848 15 24 15C21.2152 15 18.5445 16.1062 16.5754 18.0754C14.6062 20.0445 13.5 22.7152 13.5 25.5C13.5 28.2848 14.6062 30.9555 16.5754 32.9246C18.5445 34.8938 21.2152 36 24 36ZM9 19.5C9 19.8978 8.84196 20.2794 8.56066 20.5607C8.27936 20.842 7.89782 21 7.5 21C7.10218 21 6.72064 20.842 6.43934 20.5607C6.15804 20.2794 6 19.8978 6 19.5C6 19.1022 6.15804 18.7206 6.43934 18.4393C6.72064 18.158 7.10218 18 7.5 18C7.89782 18 8.27936 18.158 8.56066 18.4393C8.84196 18.7206 9 19.1022 9 19.5Z" fill="#550202"/>
</g>
<defs>
<clipPath id="clip0_32_161">
<rect width="48" height="48" fill="white"/>
</clipPath>
</defs>
</svg>
