<svg width="42" height="42" viewBox="0 0 42 42" fill="none" xmlns="http://www.w3.org/2000/svg">
<path d="M21 36.75C19.8712 35.749 18.5955 34.7078 17.2462 33.6H17.2287C12.4775 29.715 7.09275 25.319 4.7145 20.0515C3.934 18.375 3.51925 16.5515 3.5 14.7C3.4974 13.4435 3.74589 12.1991 4.23087 11.0399C4.71585 9.88076 5.42754 8.83017 6.32416 7.94986C7.22078 7.06954 8.28425 6.37724 9.45212 5.91361C10.62 5.44998 11.8687 5.22437 13.125 5.25001C15.1911 5.25328 17.2127 5.8504 18.949 6.97026C19.7119 7.46546 20.4022 8.06446 21 8.75001C21.602 8.06751 22.2915 7.46901 23.0527 6.97026C24.7883 5.85018 26.8094 5.25302 28.875 5.25001C30.1313 5.22437 31.38 5.44998 32.5479 5.91361C33.7157 6.37724 34.7792 7.06954 35.6758 7.94986C36.5724 8.83017 37.2841 9.88076 37.7691 11.0399C38.2541 12.1991 38.5026 13.4435 38.5 14.7C38.4822 16.5529 38.0681 18.3806 37.2855 20.0603C34.9072 25.3278 29.5242 29.722 24.773 33.6L24.7555 33.614C23.4045 34.7148 22.1305 35.756 21.0017 36.764L21 36.75ZM13.125 8.75001C11.4949 8.72961 9.92262 9.35349 8.75 10.486C8.19079 11.0353 7.74771 11.6914 7.44708 12.4153C7.14645 13.1392 6.99441 13.9162 7 14.7C7.01925 16.0475 7.3255 17.3775 7.896 18.599C9.01867 20.8717 10.5335 22.9286 12.3707 24.675C14.105 26.425 16.1 28.119 17.8255 29.5435C18.3032 29.9373 18.7897 30.3345 19.2762 30.7318L19.5825 30.982C20.0497 31.3635 20.5327 31.759 21 32.1475L21.0227 32.1265L21.0332 32.1178H21.0437L21.0595 32.1055H21.077L21.1085 32.0793L21.1802 32.0215L21.1925 32.011L21.2117 31.997H21.2222L21.238 31.983L22.4 31.0293L22.7045 30.779C23.1962 30.3783 23.6827 29.981 24.1605 29.5873C25.886 28.1628 27.8827 26.4705 29.617 24.7118C31.4546 22.9663 32.9695 20.91 34.0917 18.6375C34.6727 17.4055 34.9842 16.0615 35.0017 14.7C35.0051 13.9184 34.8519 13.1441 34.551 12.4227C34.2501 11.7013 33.8077 11.0476 33.25 10.5C32.0796 9.36237 30.5071 8.73336 28.875 8.75001C27.8903 8.74164 26.915 8.94174 26.0132 9.33716C25.1114 9.73257 24.3035 10.3144 23.6425 11.0443L21 14.0893L18.3575 11.0443C17.6965 10.3144 16.8886 9.73257 15.9868 9.33716C15.085 8.94174 14.1097 8.74164 13.125 8.75001Z" fill="#550202"/>
</svg>
