<svg width="19" height="50" viewBox="0 0 19 50" fill="none" xmlns="http://www.w3.org/2000/svg">
<g clip-path="url(#clip0_48_174)">
<path d="M9.375 0C12.8268 0 15.625 2.79824 15.625 6.25C15.625 9.70176 12.8268 12.5 9.375 12.5C5.92324 12.5 3.125 9.70176 3.125 6.25C3.125 2.79824 5.92324 0 9.375 0ZM14.0625 14.0625H12.9531C10.7353 15.0823 8.11035 15.1264 5.79688 14.0625H4.6875C2.09863 14.0625 0 16.1611 0 18.75V32.0312C0 33.3257 1.04932 34.375 2.34375 34.375H3.90625V47.6562C3.90625 48.9507 4.95557 50 6.25 50H12.5C13.7944 50 14.8438 48.9507 14.8438 47.6562V34.375H16.4062C17.7007 34.375 18.75 33.3257 18.75 32.0312V18.75C18.75 16.1611 16.6514 14.0625 14.0625 14.0625Z" fill="white"/>
</g>
<defs>
<clipPath id="clip0_48_174">
<rect width="18.75" height="50" fill="white"/>
</clipPath>
</defs>
</svg>
