<svg width="41" height="32" viewBox="0 0 41 32" fill="none" xmlns="http://www.w3.org/2000/svg">
<path d="M38.1607 2.59556C41.6651 6.0563 41.6651 11.6671 38.1607 15.1279L25.4706 27.6602L22.9325 25.1538L35.6022 12.6416L35.6228 12.6215C37.7253 10.5449 37.7253 7.1783 35.6228 5.10198C33.5202 3.02545 30.1112 3.02545 28.0086 5.10198L15.3185 17.6343L12.7805 15.1279L25.4706 2.59556C28.9749 -0.865186 34.6564 -0.865186 38.1607 2.59556Z" fill="#550202"/>
<path d="M12.7804 5.10198L15.3185 2.59556C11.8142 -0.865186 6.13256 -0.865186 2.62824 2.59556C-0.87608 6.0563 -0.87608 11.6671 2.62824 15.1279L15.3184 27.6602L17.8565 25.1538L5.16633 12.6215C3.06376 10.5449 3.06376 7.17852 5.16633 5.10198C7.2689 3.02566 10.6778 3.02566 12.7804 5.10198Z" fill="#550202"/>
<path d="M33.0847 10.115C32.3838 10.8072 31.2475 10.8072 30.5467 10.115C29.8458 9.42287 29.8458 8.30068 30.5467 7.60854C31.2475 6.91639 32.3838 6.91639 33.0847 7.60854C33.7855 8.30068 33.7855 9.42287 33.0847 10.115Z" fill="#550202"/>
<path d="M30.5467 7.60854L33.0847 10.115L17.8565 25.1538L15.3185 22.6475L30.5467 7.60854Z" fill="#550202"/>
<path d="M10.2424 7.60849C10.9432 8.30063 10.9432 9.42282 10.2424 10.115C9.54151 10.8071 8.40519 10.8071 7.70434 10.115C7.00348 9.42282 7.00348 8.30063 7.70434 7.60849C8.40519 6.91634 9.54151 6.91634 10.2424 7.60849Z" fill="#550202"/>
<path d="M14.0495 6.35522C13.3487 5.66307 13.3487 4.54089 14.0495 3.84874C14.7504 3.1566 15.8867 3.1566 16.5875 3.84874C17.2884 4.54089 17.2884 5.66307 16.5875 6.35522C15.8867 7.04736 14.7504 7.04736 14.0495 6.35522Z" fill="#550202"/>
<path d="M16.5875 3.84874L14.0495 6.35522L12.7804 5.10198L15.3185 2.59556L16.5875 3.84874Z" fill="#550202"/>
<path d="M19.1255 28.9136C19.8264 28.2214 20.9627 28.2214 21.6636 28.9136C22.3644 29.6057 22.3644 30.7279 21.6636 31.42C20.9627 32.1122 19.8264 32.1122 19.1255 31.42C18.4247 30.7279 18.4247 29.6057 19.1255 28.9136Z" fill="#550202"/>
<path d="M21.6636 31.42L19.1255 28.9136L22.9325 25.1538L25.4706 27.6602L21.6636 31.42Z" fill="#550202"/>
<path d="M12.7805 15.1279L15.3184 12.6215L10.2424 7.60849C10.9432 8.30063 10.9432 9.42282 10.2424 10.115C9.54151 10.8071 8.40519 10.8071 7.70434 10.115L12.7805 15.1279Z" fill="#550202"/>
</svg>
