<svg width="48" height="48" viewBox="0 0 48 48" fill="none" xmlns="http://www.w3.org/2000/svg">
<path d="M24 4.875C20.6651 4.87554 17.3882 5.74813 14.4947 7.40617C11.6011 9.06421 9.19141 11.4501 7.50467 14.327C5.81793 17.2039 4.9128 20.4719 4.87909 23.8067C4.84538 27.1414 5.68426 30.4271 7.3125 33.3375L5.6625 39.0937C5.52776 39.5443 5.51742 40.0228 5.63257 40.4787C5.74772 40.9347 5.98407 41.3509 6.31657 41.6834C6.64907 42.0159 7.06534 42.2523 7.52125 42.3674C7.97716 42.4826 8.45573 42.4722 8.90625 42.3375L14.6625 40.6875C17.2131 42.1155 20.057 42.9399 22.9759 43.0973C25.8948 43.2546 28.8109 42.7408 31.5002 41.5953C34.1895 40.4498 36.5805 38.7031 38.4894 36.4894C40.3983 34.2756 41.7744 31.6538 42.5119 28.8252C43.2494 25.9966 43.3287 23.0367 42.7437 20.1727C42.1587 17.3087 40.925 14.6169 39.1374 12.3041C37.3498 9.99134 35.0558 8.1191 32.4317 6.83123C29.8075 5.54336 26.9231 4.87415 24 4.875ZM24 40.875C20.9712 40.8741 17.9985 40.0581 15.3937 38.5125C15.2147 38.4169 15.0154 38.3655 14.8125 38.3625C14.711 38.355 14.609 38.3678 14.5125 38.4L8.2875 40.1812C8.22234 40.2013 8.15295 40.2032 8.08678 40.1868C8.02062 40.1704 7.96018 40.1362 7.91198 40.088C7.86377 40.0398 7.82962 39.9794 7.81319 39.9132C7.79676 39.847 7.79868 39.7777 7.81875 39.7125L9.6 33.4875C9.64205 33.3407 9.65376 33.1868 9.63442 33.0353C9.61508 32.8838 9.56509 32.7378 9.4875 32.6062C7.58863 29.4036 6.80227 25.6629 7.25088 21.9667C7.6995 18.2706 9.35791 14.8266 11.9678 12.1712C14.5777 9.51578 17.9925 7.79806 21.6803 7.2856C25.3681 6.77315 29.1219 7.49472 32.3569 9.33792C35.5919 11.1811 38.1265 14.0425 39.5659 17.4762C41.0053 20.91 41.2687 24.7234 40.315 28.3225C39.3613 31.9215 37.2441 35.1041 34.2931 37.3745C31.3422 39.6449 27.7233 40.8756 24 40.875ZM33.7875 20.2125C33.8941 20.3141 33.9791 20.4362 34.0371 20.5716C34.0951 20.707 34.125 20.8527 34.125 21C34.125 21.1473 34.0951 21.293 34.0371 21.4284C33.9791 21.5638 33.8941 21.6859 33.7875 21.7875L27.7875 27.7875C27.6859 27.8941 27.5638 27.9791 27.4284 28.0371C27.293 28.0951 27.1473 28.125 27 28.125C26.8527 28.125 26.707 28.0951 26.5716 28.0371C26.4362 27.9791 26.3141 27.8941 26.2125 27.7875L21 22.5938L15.7875 27.7875C15.5786 27.9964 15.2954 28.1137 15 28.1137C14.7046 28.1137 14.4214 27.9964 14.2125 27.7875C14.0036 27.5786 13.8863 27.2954 13.8863 27C13.8863 26.7046 14.0036 26.4214 14.2125 26.2125L20.2125 20.2125C20.3141 20.1059 20.4362 20.0209 20.5716 19.9629C20.707 19.9049 20.8527 19.875 21 19.875C21.1473 19.875 21.293 19.9049 21.4284 19.9629C21.5638 20.0209 21.6859 20.1059 21.7875 20.2125L27 25.4062L32.2125 20.2125C32.3141 20.1059 32.4362 20.0209 32.5716 19.9629C32.707 19.9049 32.8527 19.875 33 19.875C33.1473 19.875 33.293 19.9049 33.4284 19.9629C33.5638 20.0209 33.6859 20.1059 33.7875 20.2125Z" fill="#550202"/>
</svg>
