<svg width="38" height="38" viewBox="0 0 38 38" fill="none" xmlns="http://www.w3.org/2000/svg">
<path d="M19 3.16663C14.6347 3.16663 11.0833 6.71804 11.0833 11.0833V15.8333H9.5C8.66015 15.8333 7.85469 16.1669 7.26083 16.7608C6.66696 17.3547 6.33333 18.1601 6.33333 19V31.6666C6.33333 32.5065 6.66696 33.3119 7.26083 33.9058C7.85469 34.4997 8.66015 34.8333 9.5 34.8333H28.5C29.3398 34.8333 30.1453 34.4997 30.7392 33.9058C31.333 33.3119 31.6667 32.5065 31.6667 31.6666V19C31.6667 18.1601 31.333 17.3547 30.7392 16.7608C30.1453 16.1669 29.3398 15.8333 28.5 15.8333H26.9167V11.0833C26.9167 6.71804 23.3652 3.16663 19 3.16663ZM14.25 11.0833C14.25 8.46446 16.3812 6.33329 19 6.33329C21.6188 6.33329 23.75 8.46446 23.75 11.0833V15.8333H14.25V11.0833ZM20.5833 28.0614V31.6666H17.4167V28.0614C16.8631 27.7444 16.4186 27.2671 16.1418 26.6924C15.865 26.1177 15.7689 25.4725 15.8661 24.8421C15.9633 24.2117 16.2493 23.6255 16.6864 23.1609C17.1235 22.6962 17.6911 22.375 18.3144 22.2395C18.7774 22.1371 19.2575 22.1399 19.7192 22.2478C20.181 22.3557 20.6126 22.5659 20.9823 22.8628C21.352 23.1597 21.6504 23.5358 21.8553 23.9634C22.0603 24.391 22.1667 24.8591 22.1667 25.3333C22.1658 25.8871 22.0189 26.4308 21.741 26.9097C21.463 27.3887 21.0637 27.7859 20.5833 28.0614Z" fill="white"/>
</svg>
