<svg width="38" height="38" viewBox="0 0 38 38" fill="none" xmlns="http://www.w3.org/2000/svg">
<path d="M12.0852 38C4.29965 33.6121 2.24987 29.4588 3.42179 23.7864C4.28696 19.5978 7.11988 16.19 7.39152 12.0094C8.60166 14.2117 9.10731 15.7996 9.24253 18.101C13.0914 13.3853 15.6348 6.85729 15.7854 0C15.7854 0 25.8102 5.89032 26.4681 14.7877C27.3311 12.9538 27.7655 10.0411 26.9025 8.15341C29.4915 10.0412 44.6451 26.7999 24.8499 38C28.5716 30.7535 25.8101 20.9757 19.3482 16.4598C19.7798 18.4015 19.0231 25.6438 16.1644 28.8261C16.9565 23.5087 15.4107 21.2603 15.4107 21.2603C15.4107 21.2603 14.8802 24.2387 12.8217 27.2474C10.942 29.9949 9.63953 32.9109 12.0852 38Z" fill="white"/>
</svg>
