<svg width="26" height="50" viewBox="0 0 26 50" fill="none" xmlns="http://www.w3.org/2000/svg">
<path d="M12.7451 0C16.2645 0 19.1177 2.79824 19.1177 6.25C19.1177 9.70176 16.2645 12.5 12.7451 12.5C9.22566 12.5 6.37255 9.70176 6.37255 6.25C6.37255 2.79824 9.22566 0 12.7451 0ZM24.6222 34.5878L19.8428 15.8378C19.7136 15.3307 19.4152 14.8806 18.9951 14.5589C18.5751 14.2372 18.0574 14.0625 17.5245 14.0625H16.3934C14.132 15.0823 11.4557 15.1264 9.09682 14.0625H7.96569C7.43276 14.0625 6.91512 14.2372 6.49506 14.5589C6.07501 14.8806 5.77663 15.3307 5.64738 15.8378L0.867963 34.5878C0.491385 36.0649 1.63128 37.5 3.18628 37.5H8.76226V47.6562C8.76226 48.9507 9.83215 50 11.152 50H14.3382C15.6581 50 16.7279 48.9507 16.7279 47.6562V37.5H22.3039C23.8563 37.5 24.9994 36.0673 24.6222 34.5878Z" fill="white"/>
</svg>
