<svg width="38" height="38" viewBox="0 0 38 38" fill="none" xmlns="http://www.w3.org/2000/svg">
<path d="M19 13.0625C20.2598 13.0625 21.468 12.5621 22.3588 11.6713C23.2496 10.7805 23.75 9.57228 23.75 8.3125C23.75 7.05272 23.2496 5.84454 22.3588 4.95374C21.468 4.06294 20.2598 3.5625 19 3.5625C17.7402 3.5625 16.532 4.06294 15.6412 4.95374C14.7504 5.84454 14.25 7.05272 14.25 8.3125C14.25 9.57228 14.7504 10.7805 15.6412 11.6713C16.532 12.5621 17.7402 13.0625 19 13.0625ZM11.875 8.90625C11.875 9.45206 11.7675 9.99252 11.5586 10.4968C11.3498 11.001 11.0436 11.4592 10.6577 11.8452C10.2717 12.2311 9.81354 12.5373 9.30928 12.7461C8.80502 12.955 8.26456 13.0625 7.71875 13.0625C7.17294 13.0625 6.63248 12.955 6.12822 12.7461C5.62396 12.5373 5.16578 12.2311 4.77984 11.8452C4.39389 11.4592 4.08775 11.001 3.87888 10.4968C3.67 9.99252 3.5625 9.45206 3.5625 8.90625C3.5625 7.80394 4.00039 6.74679 4.77984 5.96734C5.55929 5.18789 6.61644 4.75 7.71875 4.75C8.82106 4.75 9.87821 5.18789 10.6577 5.96734C11.4371 6.74679 11.875 7.80394 11.875 8.90625ZM34.4375 8.90625C34.4375 9.45206 34.33 9.99252 34.1211 10.4968C33.9123 11.001 33.6061 11.4592 33.2202 11.8452C32.8342 12.2311 32.376 12.5373 31.8718 12.7461C31.3675 12.955 30.8271 13.0625 30.2812 13.0625C29.7354 13.0625 29.195 12.955 28.6907 12.7461C28.1865 12.5373 27.7283 12.2311 27.3423 11.8452C26.9564 11.4592 26.6502 11.001 26.4414 10.4968C26.2325 9.99252 26.125 9.45206 26.125 8.90625C26.125 7.80394 26.5629 6.74679 27.3423 5.96734C28.1218 5.18789 29.1789 4.75 30.2812 4.75C31.3836 4.75 32.4407 5.18789 33.2202 5.96734C33.9996 6.74679 34.4375 7.80394 34.4375 8.90625ZM11.1352 15.4375C10.4594 16.2793 10.092 17.3268 10.0938 18.4062V27.3125C10.0938 28.7791 10.4476 30.1625 11.0758 31.3821C10.1708 31.8579 9.15819 32.092 8.13613 32.0617C7.11406 32.0313 6.11716 31.7375 5.24199 31.2087C4.36681 30.6799 3.64303 29.9341 3.14074 29.0434C2.63846 28.1528 2.37469 27.1475 2.375 26.125V18.4062C2.375 17.6189 2.68778 16.8638 3.24453 16.307C3.80128 15.7503 4.55639 15.4375 5.34375 15.4375H11.1352ZM26.9242 31.3821C27.5716 30.1234 27.9084 28.728 27.9062 27.3125V18.4062C27.9062 17.2829 27.5167 16.2509 26.8648 15.4375H32.6562C33.4436 15.4375 34.1987 15.7503 34.7555 16.307C35.3122 16.8638 35.625 17.6189 35.625 18.4062V26.125C35.6253 27.1475 35.3615 28.1528 34.8593 29.0434C34.357 29.9341 33.6332 30.6799 32.758 31.2087C31.8828 31.7375 30.8859 32.0313 29.8639 32.0617C28.8418 32.092 27.8292 31.8579 26.9242 31.3821ZM14.8438 15.4375C14.0564 15.4375 13.3013 15.7503 12.7445 16.307C12.1878 16.8638 11.875 17.6189 11.875 18.4062V27.3125C11.875 29.2022 12.6257 31.0144 13.9619 32.3506C15.2981 33.6868 17.1103 34.4375 19 34.4375C20.8897 34.4375 22.7019 33.6868 24.0381 32.3506C25.3743 31.0144 26.125 29.2022 26.125 27.3125V18.4062C26.125 17.6189 25.8122 16.8638 25.2555 16.307C24.6987 15.7503 23.9436 15.4375 23.1562 15.4375H14.8438Z" fill="white"/>
</svg>
