<svg width="40" height="40" viewBox="0 0 40 40" fill="none" xmlns="http://www.w3.org/2000/svg">
<path d="M19.9999 3.33331C10.7833 3.33331 3.33325 10.7833 3.33325 20C3.33325 29.2166 10.7833 36.6666 19.9999 36.6666C29.2166 36.6666 36.6666 29.2166 36.6666 20C36.6666 10.7833 29.2166 3.33331 19.9999 3.33331ZM19.9999 33.3333C12.6499 33.3333 6.66659 27.35 6.66659 20C6.66659 12.65 12.6499 6.66665 19.9999 6.66665C27.3499 6.66665 33.3333 12.65 33.3333 20C33.3333 27.35 27.3499 33.3333 19.9999 33.3333ZM25.9833 11.6666L19.9999 17.65L14.0166 11.6666L11.6666 14.0166L17.6499 20L11.6666 25.9833L14.0166 28.3333L19.9999 22.35L25.9833 28.3333L28.3333 25.9833L22.3499 20L28.3333 14.0166L25.9833 11.6666Z" fill="white"/>
</svg>
