<svg width="199" height="32" viewBox="0 0 199 32" fill="none" xmlns="http://www.w3.org/2000/svg">
<path d="M38.1607 2.59556C41.6651 6.0563 41.6651 11.6671 38.1607 15.1279L25.4706 27.6602L22.9325 25.1538L35.6022 12.6416L35.6228 12.6215C37.7253 10.5449 37.7253 7.1783 35.6228 5.10198C33.5202 3.02545 30.1112 3.02545 28.0086 5.10198L15.3185 17.6343L12.7805 15.1279L25.4706 2.59556C28.9749 -0.865186 34.6564 -0.865186 38.1607 2.59556Z" fill="#550202"/>
<path d="M12.7804 5.10198L15.3185 2.59556C11.8142 -0.865186 6.13256 -0.865186 2.62824 2.59556C-0.87608 6.0563 -0.87608 11.6671 2.62824 15.1279L15.3184 27.6602L17.8565 25.1538L5.16633 12.6215C3.06376 10.5449 3.06376 7.17852 5.16633 5.10198C7.2689 3.02566 10.6778 3.02566 12.7804 5.10198Z" fill="#550202"/>
<path d="M33.0847 10.115C32.3838 10.8072 31.2475 10.8072 30.5467 10.115C29.8458 9.42287 29.8458 8.30068 30.5467 7.60854C31.2475 6.91639 32.3838 6.91639 33.0847 7.60854C33.7855 8.30068 33.7855 9.42287 33.0847 10.115Z" fill="#550202"/>
<path d="M30.5467 7.60854L33.0847 10.115L17.8565 25.1538L15.3185 22.6475L30.5467 7.60854Z" fill="#550202"/>
<path d="M10.2424 7.60849C10.9432 8.30063 10.9432 9.42282 10.2424 10.115C9.54151 10.8071 8.40519 10.8071 7.70434 10.115C7.00348 9.42282 7.00348 8.30063 7.70434 7.60849C8.40519 6.91634 9.54151 6.91634 10.2424 7.60849Z" fill="#550202"/>
<path d="M14.0495 6.35522C13.3487 5.66307 13.3487 4.54089 14.0495 3.84874C14.7504 3.1566 15.8867 3.1566 16.5875 3.84874C17.2884 4.54089 17.2884 5.66307 16.5875 6.35522C15.8867 7.04736 14.7504 7.04736 14.0495 6.35522Z" fill="#550202"/>
<path d="M16.5875 3.84874L14.0495 6.35522L12.7804 5.10198L15.3185 2.59556L16.5875 3.84874Z" fill="#550202"/>
<path d="M19.1255 28.9136C19.8264 28.2214 20.9627 28.2214 21.6636 28.9136C22.3644 29.6057 22.3644 30.7279 21.6636 31.42C20.9627 32.1122 19.8264 32.1122 19.1255 31.42C18.4247 30.7279 18.4247 29.6057 19.1255 28.9136Z" fill="#550202"/>
<path d="M21.6636 31.42L19.1255 28.9136L22.9325 25.1538L25.4706 27.6602L21.6636 31.42Z" fill="#550202"/>
<path d="M12.7805 15.1279L15.3184 12.6215L10.2424 7.60849C10.9432 8.30063 10.9432 9.42282 10.2424 10.115C9.54151 10.8071 8.40519 10.8071 7.70434 10.115L12.7805 15.1279Z" fill="#550202"/>
<path fill-rule="evenodd" clip-rule="evenodd" d="M123.765 23.2188C123.88 23.104 123.97 22.9652 124.042 22.8084C124.116 22.6465 124.153 22.4692 124.158 22.2781C124.158 22.0399 124.105 21.8249 123.999 21.6381C123.896 21.4514 123.757 21.3031 123.582 21.1969C123.407 21.0872 123.207 21.0358 122.982 21.0316C122.815 21.0316 122.673 21.0573 122.558 21.1035C122.444 21.1541 122.331 21.2226 122.224 21.3109C121.813 21.6715 121.351 21.9551 120.85 22.1633C120.349 22.3715 119.786 22.4769 119.166 22.4812C118.526 22.4812 117.946 22.3458 117.425 22.0828C116.902 21.8206 116.47 21.4342 116.128 20.9305C115.785 20.4216 115.557 19.803 115.447 19.0739H123.545C123.802 19.0688 124.035 19.0054 124.242 18.8828C124.454 18.7595 124.622 18.5856 124.748 18.3654C124.87 18.1452 124.936 17.8865 124.94 17.5977C124.94 16.9706 124.859 16.3478 124.695 15.7198C124.533 15.0926 124.288 14.4946 123.961 13.9309C123.635 13.3629 123.227 12.8591 122.738 12.4179C122.245 11.9767 121.674 11.6288 121.018 11.3752C120.361 11.1208 119.622 10.9897 118.799 10.9846C117.874 10.9897 117.025 11.1756 116.254 11.5354C115.484 11.9004 114.819 12.4007 114.256 13.0407C113.693 13.6807 113.261 14.4227 112.955 15.2665C112.645 16.1096 112.491 17.0126 112.486 17.9798V18.0304C112.491 19.0688 112.662 20.0189 112.997 20.8662C113.33 21.7187 113.799 22.452 114.398 23.0706C114.998 23.6857 115.7 24.1604 116.503 24.4954C117.303 24.8261 118.174 24.9957 119.116 25C120.116 24.9957 120.993 24.8338 121.755 24.5211C122.514 24.2066 123.182 23.7706 123.765 23.2188ZM115.423 17.0383C115.516 16.3392 115.712 15.7241 116.01 15.1946C116.308 14.6643 116.69 14.253 117.16 13.9566C117.629 13.6593 118.167 13.5077 118.774 13.5034C119.427 13.5077 119.986 13.6687 120.451 13.978C120.915 14.2873 121.282 14.7105 121.551 15.2417C121.82 15.7712 121.988 16.3683 122.053 17.0383H115.423ZM104.632 23.2951C104.637 23.5881 104.702 23.8468 104.832 24.0756C104.967 24.3043 105.143 24.4868 105.363 24.6179C105.583 24.749 105.827 24.8167 106.101 24.8218C106.382 24.8167 106.634 24.749 106.858 24.6145C107.083 24.474 107.259 24.2915 107.389 24.0619C107.524 23.834 107.589 23.5795 107.593 23.2951V19.3275C107.598 18.2677 107.748 17.3733 108.046 16.6399C108.343 15.9065 108.756 15.33 109.285 14.9102C109.815 14.4869 110.435 14.2145 111.141 14.0877C111.365 14.0457 111.561 13.9566 111.74 13.8298C111.916 13.7021 112.054 13.5325 112.157 13.3295C112.262 13.1213 112.312 12.884 112.315 12.6124C112.315 12.3117 112.258 12.0486 112.14 11.8199C112.026 11.5911 111.858 11.4129 111.642 11.2853C111.422 11.1542 111.157 11.0908 110.847 11.0865C110.41 11.0908 109.987 11.2219 109.58 11.4763C109.171 11.7351 108.796 12.0829 108.454 12.5284C108.111 12.9688 107.826 13.4734 107.593 14.0371V12.6638C107.589 12.3708 107.524 12.1078 107.389 11.8756C107.259 11.6417 107.083 11.4601 106.858 11.3238C106.634 11.1842 106.382 11.1165 106.101 11.1122C105.819 11.1165 105.57 11.1842 105.35 11.3238C105.13 11.4601 104.955 11.6417 104.829 11.8756C104.702 12.1078 104.637 12.3708 104.632 12.6638V23.2951ZM95.9224 22.7365C95.4453 22.7365 95.0167 22.656 94.6385 22.4983C94.2585 22.3372 93.9602 22.1085 93.741 21.8035C93.521 21.5019 93.4064 21.1335 93.4023 20.7009V20.6503C93.4023 20.1843 93.5243 19.7807 93.7649 19.4466C94.0064 19.1159 94.3484 18.8572 94.8016 18.679C95.2541 18.5008 95.7997 18.4117 96.4359 18.4117C97.0235 18.4159 97.5666 18.4673 98.0594 18.5642C98.5522 18.6618 98.9931 18.7895 99.3722 18.9463V19.8613C99.3689 20.4344 99.2132 20.9348 98.9115 21.3631C98.614 21.7949 98.2061 22.1299 97.6877 22.3715C97.1702 22.6088 96.5834 22.7313 95.9224 22.7365ZM95.0909 24.9743C95.751 24.97 96.3427 24.8809 96.8685 24.7113C97.391 24.5382 97.855 24.3043 98.2588 24.0079C98.6585 23.7149 99.0055 23.3842 99.2989 23.0158V23.5238C99.303 23.7577 99.3648 23.9693 99.4826 24.1647C99.6046 24.3592 99.7719 24.5168 99.9878 24.6393C100.205 24.7584 100.457 24.8167 100.743 24.8218C101.015 24.8167 101.259 24.7541 101.476 24.6265C101.693 24.4997 101.864 24.3215 101.99 24.1004C102.117 23.8802 102.182 23.6301 102.186 23.3465V16.7333C102.186 15.8509 102.076 15.0627 101.847 14.3627C101.619 13.6645 101.269 13.0742 100.791 12.5875C100.339 12.1 99.7513 11.7308 99.0376 11.4721C98.3206 11.2185 97.4767 11.0865 96.51 11.0865C95.9513 11.0865 95.4288 11.1208 94.9516 11.1842C94.4745 11.2476 94.0228 11.3358 93.5984 11.4558C93.1699 11.574 92.7545 11.7137 92.3499 11.8756C92.1257 11.9681 91.9337 12.1249 91.7837 12.3416C91.6279 12.5618 91.5513 12.812 91.5431 13.0964C91.5472 13.3337 91.604 13.5496 91.7137 13.7398C91.8241 13.9309 91.9757 14.0843 92.1628 14.1939C92.3499 14.3087 92.5584 14.3627 92.7908 14.367C92.8641 14.367 92.9375 14.3593 93.0149 14.3464C93.0883 14.3336 93.1699 14.3164 93.2556 14.2916C93.6594 14.1262 94.0954 13.9943 94.5684 13.9018C95.0423 13.8041 95.5557 13.7578 96.1186 13.7578C97.1627 13.7578 97.9572 14.008 98.4995 14.5041C99.0459 14.9993 99.3186 15.7241 99.3228 16.6828V17.0126C98.9931 16.9021 98.6503 16.8053 98.3 16.7204C97.9448 16.6356 97.5698 16.5722 97.1702 16.526C96.7663 16.4788 96.3263 16.4531 95.8491 16.4531C95.0579 16.4531 94.3368 16.5422 93.6841 16.7204C93.0314 16.8986 92.4735 17.1702 91.9996 17.5258C91.5266 17.8865 91.164 18.3354 90.906 18.8777C90.6505 19.4209 90.5195 20.0523 90.5146 20.7771V20.8277C90.5195 21.5019 90.6464 22.0965 90.8904 22.6131C91.1351 23.1297 91.4697 23.5624 91.8941 23.9102C92.3219 24.2623 92.8073 24.5245 93.3537 24.707C93.9 24.8852 94.4794 24.9743 95.0909 24.9743ZM82.7101 25C83.6282 24.9957 84.4556 24.8972 85.1899 24.707C85.9283 24.5168 86.6008 24.2409 87.2131 23.8845C87.8197 23.5281 88.3908 23.104 88.9248 22.6088C89.0641 22.4812 89.1778 22.3253 89.2718 22.1333C89.3616 21.9474 89.4102 21.7315 89.4143 21.4891C89.4102 21.2226 89.3451 20.981 89.2149 20.7651C89.0839 20.5441 88.9133 20.3702 88.7006 20.2391C88.4839 20.1123 88.2523 20.0446 87.9952 20.0395C87.8122 20.0446 87.64 20.078 87.4851 20.1414C87.3351 20.2091 87.1999 20.2948 87.0903 20.3959C86.6783 20.76 86.258 21.0701 85.8261 21.3246C85.3976 21.579 84.9369 21.7692 84.4474 21.9012C83.9545 22.0322 83.4082 22.0999 82.8074 22.0999C81.9849 22.0965 81.23 21.9312 80.541 21.6039C79.8562 21.2817 79.2562 20.8277 78.7502 20.2511C78.2492 19.6745 77.8577 19.0097 77.5767 18.2463C77.299 17.4881 77.1613 16.669 77.1564 15.7926V15.7412C77.1613 14.8639 77.3031 14.0457 77.5808 13.2909C77.8618 12.5318 78.2541 11.867 78.7634 11.2947C79.2686 10.7181 79.8644 10.2726 80.5534 9.95048C81.2382 9.62835 81.989 9.463 82.8074 9.45871C83.6241 9.463 84.3625 9.60693 85.0267 9.88708C85.6918 10.1664 86.3115 10.5605 86.8942 11.0608C86.9923 11.1414 87.1142 11.2099 87.265 11.269C87.4126 11.3324 87.5914 11.3624 87.7991 11.3658C88.0809 11.3624 88.3331 11.2947 88.5581 11.1628C88.7781 11.0317 88.9578 10.8501 89.088 10.6205C89.2223 10.3908 89.2874 10.1287 89.2915 9.83996C89.2874 9.56067 89.2314 9.31478 89.1168 9.10231C89.0064 8.89069 88.8679 8.72106 88.7048 8.5934C88.2119 8.19074 87.6771 7.84376 87.1068 7.54304C86.5357 7.24232 85.8995 7.00843 85.1981 6.8388C84.4968 6.67345 83.7098 6.58863 82.8329 6.58435C81.7929 6.58863 80.8229 6.74541 79.9213 7.0547C79.0238 7.36484 78.2088 7.80092 77.4827 8.3698C76.7575 8.93267 76.1336 9.59836 75.6153 10.366C75.0969 11.1294 74.6972 11.9724 74.4203 12.8925C74.1434 13.8084 74.0041 14.7748 74 15.7926V15.8431C74.0041 16.8687 74.1467 17.8394 74.4285 18.7595C74.7096 19.6745 75.1093 20.515 75.6268 21.274C76.1501 22.0365 76.769 22.6937 77.4869 23.2488C78.2088 23.8048 79.0082 24.2324 79.8883 24.5382C80.7693 24.8432 81.7072 24.9957 82.7101 25Z" fill="#550202"/>
<path fill-rule="evenodd" clip-rule="evenodd" d="M187.941 23.8296C187.949 24.1132 188.039 24.3505 188.219 24.533C188.394 24.7198 188.623 24.8123 188.895 24.8217C189.168 24.8123 189.392 24.7198 189.56 24.533C189.731 24.3505 189.821 24.1132 189.826 23.8296V17.1659C189.833 16.3392 189.996 15.6143 190.323 14.9992C190.649 14.3849 191.098 13.906 191.669 13.5667C192.236 13.2232 192.883 13.0493 193.618 13.0458C194.364 13.0493 194.996 13.2103 195.514 13.5325C196.036 13.8512 196.431 14.3087 196.705 14.8973C196.978 15.491 197.116 16.1952 197.116 17.0126V23.8296C197.125 24.1132 197.214 24.3505 197.394 24.533C197.569 24.7198 197.798 24.8123 198.071 24.8217C198.336 24.8123 198.553 24.7198 198.726 24.533C198.902 24.3505 198.993 24.1132 199 23.8296V16.5293C198.997 15.4781 198.805 14.5623 198.426 13.7749C198.042 12.9859 197.492 12.375 196.769 11.9346C196.051 11.4943 195.179 11.2732 194.156 11.2647C193.434 11.269 192.799 11.3872 192.252 11.6125C191.705 11.8413 191.233 12.1463 190.832 12.5318C190.437 12.9182 190.098 13.3543 189.826 13.8332V6.99125C189.826 6.80962 189.78 6.6477 189.699 6.4952C189.613 6.34698 189.499 6.22875 189.356 6.13965C189.214 6.04626 189.05 6.00428 188.871 6C188.7 6.00428 188.541 6.04626 188.403 6.13965C188.263 6.22875 188.15 6.34698 188.067 6.4952C187.986 6.6477 187.944 6.80962 187.941 6.99125V23.8296ZM180.772 25C181.478 24.9957 182.118 24.9066 182.689 24.7284C183.26 24.5502 183.778 24.3043 184.247 23.9907C184.716 23.6729 185.148 23.3088 185.544 22.8881C185.617 22.8118 185.678 22.7193 185.719 22.6131C185.764 22.5068 185.789 22.3929 185.789 22.2781C185.784 22.1213 185.747 21.9765 185.671 21.8463C185.592 21.7101 185.49 21.5996 185.36 21.5147C185.23 21.4342 185.086 21.3914 184.932 21.3879C184.81 21.3914 184.703 21.4179 184.618 21.4685C184.529 21.5199 184.455 21.5747 184.393 21.6424C184.083 21.9517 183.75 22.2224 183.386 22.4649C183.028 22.7056 182.636 22.8932 182.22 23.0329C181.801 23.1725 181.352 23.2402 180.871 23.2445C180.206 23.2402 179.595 23.1091 179.028 22.847C178.465 22.5874 177.976 22.2224 177.556 21.7563C177.135 21.2903 176.809 20.7522 176.577 20.1328C176.344 19.5142 176.226 18.8486 176.222 18.1323V18.0818C176.226 17.369 176.34 16.7076 176.568 16.0933C176.797 15.4824 177.111 14.9444 177.523 14.4775C177.931 14.0157 178.407 13.6516 178.958 13.3928C179.505 13.1298 180.104 12.9979 180.748 12.9944C181.249 12.9979 181.707 13.0698 182.115 13.2103C182.522 13.35 182.897 13.541 183.24 13.7784C183.578 14.0157 183.901 14.2787 184.198 14.5717C184.271 14.6342 184.361 14.6899 184.467 14.7328C184.573 14.7748 184.687 14.7996 184.81 14.7996C184.973 14.7953 185.124 14.7576 185.263 14.6728C185.397 14.5923 185.507 14.4817 185.588 14.3378C185.671 14.1982 185.711 14.0371 185.715 13.8589C185.711 13.7064 185.682 13.5667 185.621 13.4477C185.564 13.3294 185.499 13.236 185.421 13.1726C185.05 12.812 184.635 12.4898 184.182 12.2011C183.729 11.9175 183.223 11.6888 182.664 11.5234C182.102 11.3529 181.47 11.269 180.772 11.2647C179.843 11.2733 178.986 11.4557 178.199 11.8156C177.416 12.1754 176.732 12.6723 176.145 13.3037C175.561 13.9403 175.109 14.6694 174.782 15.491C174.46 16.3177 174.293 17.195 174.289 18.1323V18.1829C174.293 19.1116 174.46 19.9846 174.782 20.8028C175.109 21.621 175.561 22.3458 176.145 22.9738C176.732 23.6 177.416 24.0961 178.199 24.4525C178.986 24.8081 179.843 24.9914 180.772 25ZM170.888 24.9228C171.251 24.9228 171.586 24.8937 171.891 24.8294C172.193 24.7703 172.479 24.6812 172.748 24.5673C172.911 24.5039 173.037 24.4019 173.135 24.2708C173.233 24.1389 173.282 23.9821 173.286 23.8048C173.278 23.5709 173.2 23.3721 173.045 23.2153C172.894 23.0543 172.703 22.9737 172.479 22.9652C172.43 22.9695 172.355 22.9823 172.263 23.0114C172.165 23.0414 172.042 23.0663 171.887 23.0963C171.732 23.1262 171.549 23.1434 171.329 23.1434C170.9 23.1468 170.529 23.0757 170.211 22.9309C169.894 22.7861 169.645 22.5582 169.469 22.2361C169.294 21.9131 169.204 21.4856 169.2 20.9561V13.2746H172.479C172.719 13.2651 172.919 13.1846 173.082 13.0244C173.245 12.8633 173.327 12.6551 173.334 12.4093C173.331 12.2525 173.294 12.1128 173.217 11.9809C173.139 11.8498 173.037 11.7479 172.907 11.6673C172.776 11.5868 172.633 11.5448 172.479 11.5448H169.2V8.44084C169.196 8.25921 169.155 8.09814 169.065 7.94478C168.98 7.79742 168.866 7.67834 168.723 7.58923C168.577 7.49585 168.421 7.45387 168.246 7.44959C168.066 7.45387 167.903 7.49585 167.765 7.58923C167.627 7.67834 167.516 7.79742 167.439 7.94478C167.357 8.09814 167.316 8.25921 167.316 8.44084V11.5448H166.288C166.141 11.5448 166.003 11.5868 165.877 11.663C165.75 11.735 165.652 11.8412 165.575 11.968C165.498 12.1 165.461 12.2482 165.457 12.4093C165.461 12.5618 165.498 12.7057 165.575 12.8376C165.652 12.9687 165.75 13.0698 165.877 13.1512C166.003 13.2317 166.141 13.2694 166.288 13.2746H167.316V21.2097C167.324 22.0964 167.479 22.8118 167.793 23.3593C168.103 23.9059 168.523 24.3043 169.061 24.5544C169.595 24.8046 170.203 24.9271 170.888 24.9228ZM161.493 23.8297C161.501 24.1133 161.591 24.3506 161.77 24.5331C161.946 24.7198 162.174 24.8124 162.447 24.8218C162.721 24.8124 162.945 24.7198 163.112 24.5331C163.284 24.3506 163.373 24.1133 163.377 23.8297V12.4093C163.369 12.1206 163.279 11.8876 163.1 11.7017C162.924 11.5183 162.7 11.4215 162.422 11.4172C162.252 11.4215 162.092 11.4643 161.954 11.5569C161.815 11.646 161.701 11.765 161.62 11.9133C161.538 12.0658 161.497 12.2268 161.493 12.4093V23.8297ZM161.322 7.75461C161.326 7.95852 161.375 8.14015 161.472 8.29693C161.57 8.44943 161.701 8.57194 161.864 8.6619C162.032 8.751 162.215 8.79298 162.422 8.79727C162.639 8.79298 162.826 8.751 162.998 8.6619C163.166 8.57194 163.299 8.44943 163.397 8.29693C163.495 8.14015 163.544 7.95852 163.548 7.75461V7.42391C163.544 7.21144 163.495 7.02553 163.397 6.86874C163.299 6.71624 163.166 6.59287 162.998 6.50805C162.826 6.42409 162.639 6.38126 162.422 6.38126C162.215 6.38126 162.032 6.42409 161.864 6.50805C161.701 6.59287 161.57 6.71624 161.472 6.86874C161.375 7.02553 161.326 7.21144 161.322 7.42391V7.75461ZM145.566 24.8972H145.614C145.859 24.8972 146.071 24.8218 146.246 24.6727C146.422 24.5211 146.556 24.3 146.642 24.0079L149.822 14.4192L152.979 24.0079C153.064 24.3 153.199 24.5211 153.374 24.6727C153.55 24.8218 153.762 24.8972 154.006 24.8972H154.08C154.304 24.8972 154.504 24.8218 154.687 24.6727C154.867 24.5211 155.005 24.3 155.107 24.0079L158.973 12.8668C159.001 12.7906 159.026 12.7015 159.055 12.6089C159.079 12.5156 159.095 12.4222 159.095 12.3331C159.095 12.1677 159.055 12.0195 158.973 11.8799C158.896 11.7436 158.786 11.634 158.647 11.5491C158.508 11.4643 158.344 11.4215 158.166 11.4172C157.913 11.4215 157.712 11.4977 157.566 11.646C157.423 11.7899 157.322 11.9681 157.261 12.1806L154.031 22.0999L150.85 12.2063C150.777 11.9724 150.658 11.7822 150.5 11.6383C150.336 11.4943 150.128 11.4215 149.872 11.4172H149.774C149.529 11.4215 149.333 11.4943 149.183 11.6383C149.027 11.7822 148.917 11.9724 148.844 12.2063L145.638 22.0999L142.459 12.2311C142.385 11.9861 142.271 11.7899 142.111 11.6417C141.953 11.4977 141.748 11.4215 141.504 11.4172C141.316 11.4215 141.149 11.4643 141.007 11.5526C140.864 11.6417 140.754 11.7556 140.672 11.9004C140.59 12.0401 140.55 12.1926 140.55 12.3588C140.554 12.447 140.566 12.5404 140.595 12.6338C140.619 12.7272 140.647 12.8163 140.672 12.8925L144.513 24.0079C144.615 24.3 144.754 24.5211 144.937 24.6727C145.121 24.8218 145.329 24.8972 145.566 24.8972ZM133.308 24.9494C134.164 24.9451 134.947 24.826 135.657 24.593C136.366 24.3556 136.986 24.0164 137.508 23.576C138.03 23.1339 138.434 22.6045 138.719 21.9859C139.008 21.3708 139.151 20.6802 139.155 19.9134V19.8612C139.155 18.959 138.96 18.1828 138.556 17.5386C138.156 16.8934 137.545 16.3511 136.72 15.9107C135.897 15.4695 134.849 15.1097 133.576 14.8253C132.639 14.6179 131.868 14.3977 131.261 14.169C130.653 13.9351 130.18 13.6849 129.837 13.4091C129.5 13.1383 129.262 12.8333 129.124 12.4983C128.989 12.1582 128.924 11.7821 128.928 11.3657V11.3152C128.933 10.7772 129.083 10.2897 129.377 9.85701C129.674 9.42436 130.095 9.08166 130.641 8.83149C131.182 8.57704 131.828 8.4451 132.574 8.44082C133.365 8.43739 134.119 8.55991 134.845 8.80579C135.567 9.05168 136.285 9.45006 137.002 9.99238C137.088 10.0558 137.173 10.0995 137.267 10.1286C137.358 10.1577 137.455 10.1714 137.564 10.1714C137.83 10.162 138.046 10.0695 138.221 9.887C138.397 9.70451 138.487 9.47576 138.495 9.20418C138.491 9.01398 138.445 8.84777 138.36 8.71241C138.274 8.5719 138.181 8.46652 138.079 8.39027C137.561 8.00046 137.022 7.67404 136.468 7.4153C135.914 7.15657 135.322 6.96123 134.69 6.831C134.058 6.69907 133.369 6.63567 132.623 6.63567C131.807 6.63995 131.053 6.75818 130.371 6.99978C129.687 7.24224 129.092 7.58065 128.59 8.01245C128.085 8.44939 127.692 8.96258 127.415 9.55201C127.138 10.1449 126.999 10.7891 126.995 11.4942V11.5448C126.995 12.2739 127.109 12.9096 127.342 13.4562C127.57 14.0036 127.921 14.474 128.394 14.8767C128.863 15.275 129.462 15.622 130.184 15.915C130.906 16.2072 131.763 16.4616 132.745 16.6827C133.637 16.8772 134.376 17.0896 134.959 17.3098C135.538 17.5343 135.995 17.7802 136.321 18.0475C136.647 18.3182 136.875 18.6198 137.011 18.9505C137.141 19.2803 137.202 19.6539 137.198 20.0651V20.1165C137.194 20.7051 137.035 21.226 136.72 21.6809C136.406 22.1333 135.962 22.4897 135.391 22.7484C134.824 23.0071 134.152 23.1391 133.381 23.1434C132.659 23.1434 131.99 23.0663 131.371 22.9138C130.751 22.757 130.164 22.5239 129.609 22.2104C129.055 21.9011 128.508 21.5061 127.974 21.0315C127.913 20.9681 127.827 20.9133 127.725 20.8704C127.623 20.8276 127.508 20.8027 127.387 20.8027C127.121 20.8113 126.906 20.9047 126.73 21.0915C126.555 21.2739 126.465 21.5104 126.457 21.7948C126.457 21.9593 126.493 22.1127 126.559 22.2438C126.624 22.3757 126.714 22.4811 126.824 22.5582C127.774 23.3464 128.781 23.9436 129.846 24.3428C130.91 24.7446 132.064 24.9494 133.308 24.9494Z" fill="#550202"/>
</svg>
